<svg xmlns="http://www.w3.org/2000/svg" viewBox="0 0 100 100" width="100%" height="100%">
  <defs>
    <linearGradient id="leafGrad" x1="0%" y1="0%" x2="100%" y2="100%">
      <stop offset="0%" stop-color="#10B981" />
      <stop offset="100%" stop-color="#047857" />
    </linearGradient>
    <linearGradient id="bgGrad" x1="0%" y1="0%" x2="0%" y2="100%">
      <stop offset="0%" stop-color="#F0FDF4" />
      <stop offset="100%" stop-color="#DCFCE7" />
    </linearGradient>
    <filter id="shadow" x="-20%" y="-20%" width="140%" height="140%">
      <feDropShadow dx="0" dy="4" stdDeviation="4" flood-color="#065F46" flood-opacity="0.15" />
    </filter>
  </defs>
  
  <circle cx="50" cy="50" r="45" fill="url(#bgGrad)" stroke="#10B981" stroke-width="1.5" filter="url(#shadow)" />
  
  <g transform="translate(50,50) scale(0.9) translate(-50,-50)">
    <path d="M50 15 C65 30, 75 55, 50 85 C25 55, 35 30, 50 15 Z" fill="url(#leafGrad)" />
    <path d="M50 15 Q52 45 50 85" stroke="#FFFFFF" stroke-width="1.5" opacity="0.4" fill="none" stroke-linecap="round" />
    <path d="M50 15 C41 26, 38 43, 47 62 C48 64, 49 61, 49 59 C47 43, 49 32, 50 15 Z" fill="#FFFFFF" opacity="0.2" />
  </g>
</svg>
